<svg fill="none" height="14" viewBox="0 0 16 14" width="16" xmlns="http://www.w3.org/2000/svg">
    <g id="Group">
        <path d="M6.60826 10.8274H1.35767" id="Line" stroke="#C2185B" stroke-linecap="round"
            stroke-linejoin="round" stroke-width="1.5" />
        <path d="M8.95044 2.75032H14.201" id="Line_2" stroke="#C2185B" stroke-linecap="round"
            stroke-linejoin="round" stroke-width="1.5" />
        <path clip-rule="evenodd" d="M5.27183 2.70521C5.27183 1.6255 4.39002 0.75 3.30254 0.75C2.21505 0.75 1.33325 1.6255 1.33325 2.70521C1.33325 3.78492 2.21505 4.66042 3.30254 4.66042C4.39002 4.66042 5.27183 3.78492 5.27183 2.70521Z" fill-rule="evenodd"
            id="Vector"
            stroke="#C2185B" stroke-linecap="round" stroke-linejoin="round" stroke-width="1.5" />
        <path clip-rule="evenodd" d="M14.6666 10.7948C14.6666 9.71508 13.7855 8.83958 12.698 8.83958C11.6098 8.83958 10.728 9.71508 10.728 10.7948C10.728 11.8745 11.6098 12.75 12.698 12.75C13.7855 12.75 14.6666 11.8745 14.6666 10.7948Z" fill-rule="evenodd"
            id="Vector_2"
            stroke="#C2185B" stroke-linecap="round" stroke-linejoin="round" stroke-width="1.5" />
    </g>
</svg>
